<svg width="1440" height="251" viewBox="0 0 1440 251" fill="none" xmlns="http://www.w3.org/2000/svg">
<path fill-rule="evenodd" clip-rule="evenodd" d="M-147 0L-108.648 23.2407C-71.6175 46.4815 3.765 92.963 79.1475 130.148C155.852 167.333 231.235 195.222 306.617 209.167C382 223.111 457.382 223.111 532.765 209.167C608.147 195.222 684.852 167.333 760.235 167.333C835.617 167.333 911 195.222 986.382 199.87C1061.76 204.519 1137.15 185.926 1213.85 162.685C1289.23 139.444 1364.62 111.556 1401.65 97.6111L1440 83.6667V251H1401.65C1364.62 251 1289.23 251 1213.85 251C1137.15 251 1061.76 251 986.382 251C911 251 835.617 251 760.235 251C684.852 251 608.147 251 532.765 251C457.382 251 382 251 306.617 251C231.235 251 155.852 251 79.1475 251C3.765 251 -71.6175 251 -108.648 251H-147V0Z" fill="#DBDBDB"/>
</svg>
